<svg xmlns="http://www.w3.org/2000/svg" width="157.403" height="27.091" xmlns:v="https://vecta.io/nano"><path d="M42.462 27.025a10.76 10.76 0 0 1-7.748-2.933c-2.073-2.018-3.188-4.823-3.068-7.714a10.9 10.9 0 0 1 3.119-7.853 10.34 10.34 0 0 1 7.768-3.236 9.41 9.41 0 0 1 7.765 3.357q2.509 3.188 2.441 8.714H36.562a5.59 5.59 0 0 0 5.73 5.662 6.48 6.48 0 0 0 3.561-1.018 6.36 6.36 0 0 0 2.373-2.644l4.069 1.9c-.722 1.635-1.931 3.008-3.462 3.932a11.43 11.43 0 0 1-6.371 1.833zm-.068-17.868a5.64 5.64 0 0 0-4.238 1.763 4.2 4.2 0 0 0-1.39 2.814h11.223a4.29 4.29 0 0 0-1.056-2.681 5.54 5.54 0 0 0-4.539-1.899zM63.11 26.514L54.668 5.696h4.95l5.7 14.478 5.459-14.478h4.916l-8.341 20.818zM89.93 10.24c-.67-.265-1.38-.414-2.1-.441a3.67 3.67 0 0 0-3.29 1.831 6.5 6.5 0 0 0-.949 3.56v11.325H78.98V5.697h4.407v3.018c.872-2.243 3.091-3.667 5.493-3.526a6.63 6.63 0 0 1 2.543.475zm13.223 16.785a10.76 10.76 0 0 1-7.748-2.933 10.18 10.18 0 0 1-3.068-7.714 10.9 10.9 0 0 1 3.119-7.853 10.34 10.34 0 0 1 7.765-3.238 9.41 9.41 0 0 1 7.765 3.357q2.509 3.188 2.442 8.714H97.254a5.59 5.59 0 0 0 5.73 5.662 6.48 6.48 0 0 0 3.56-1.018 6.36 6.36 0 0 0 2.373-2.644l4.069 1.9a8.7 8.7 0 0 1-3.459 3.933 11.43 11.43 0 0 1-6.374 1.834zm-.067-17.868a5.64 5.64 0 0 0-4.238 1.763 4.2 4.2 0 0 0-1.39 2.814h11.222a4.29 4.29 0 0 0-1.051-2.679 5.54 5.54 0 0 0-4.543-1.901zM129.7 26.515l-7.454-10.613v10.613h-4.712V0h4.712v14l6.985-8.307h5.595l-8.18 9.226 8.815 11.6zM6.082 11.258l-1.881-6.13H2.237A2.24 2.24 0 0 0 0 7.358v7.95l4.468-1.165a2.28 2.28 0 0 0 1.614-2.885zM19.73 5.124H8.612l1.554 5.066c.404 1.269 1.725 2.005 3.017 1.681l8.786-2.291V7.358a2.24 2.24 0 0 0-2.239-2.234zm-6.924 13.672l2.544 8.295h4.38a2.24 2.24 0 0 0 1.582-.655c.42-.419.655-.989.655-1.582V13.939l-7.546 1.969c-.607.153-1.124.55-1.429 1.096a2.28 2.28 0 0 0-.186 1.792z" fill="#0e2239"/><path d="M10.625 26.2c.012.007.028.007.04 0l-1.831-6.115c-.02-.084-.045-.167-.074-.248v-.012h0a2.59 2.59 0 0 0-1.608-1.579l-.037-.011-.054-.016c-.44-.141-.911-.155-1.358-.04L0 19.666v5.187c0 .593.236 1.162.655 1.582s.989.655 1.582.655h8.7l-.274-.891c-.012.006-.026.007-.038.001z" fill="#459b23"/><path d="M153.063 5.696v2.713a5.85 5.85 0 0 0-2.68-2.272 9.49 9.49 0 0 0-4.035-.848c-2.824-.112-5.54 1.09-7.357 3.255-1.74 2.166-2.643 4.885-2.543 7.662-.107 2.835.857 5.607 2.7 7.764 1.8 2.037 4.42 3.157 7.136 3.052 2.687.159 5.261-1.102 6.783-3.323v2.814h4.34V5.696zm-6.351 17.71c-3.429 0-6.209-3.27-6.209-7.3s2.78-7.3 6.209-7.3a5.92 5.92 0 0 1 4.881 2.8 6.58 6.58 0 0 1 1.067 2.411 8.51 8.51 0 0 1 .262 2.095c-.001 4.024-2.781 7.294-6.21 7.294z" fill="#0e2239"/></svg>