<?xml version="1.0" standalone="no"?>
<!DOCTYPE svg PUBLIC "-//W3C//DTD SVG 20010904//EN"
 "http://www.w3.org/TR/2001/REC-SVG-20010904/DTD/svg10.dtd">
<svg version="1.0" xmlns="http://www.w3.org/2000/svg"
 width="1024.000000pt" height="1024.000000pt" viewBox="0 0 1024.000000 1024.000000"
 preserveAspectRatio="xMidYMid meet">
<metadata>
Created by potrace 1.16, written by Peter Selinger 2001-2019
</metadata>
<g transform="translate(0.000000,1024.000000) scale(0.100000,-0.100000)"
fill="#000000" stroke="none">
<path d="M7415 6028 c-11 -6 -24 -17 -28 -25 -5 -7 -12 -11 -18 -8 -5 4 -9
-26 -9 -74 0 -57 -4 -84 -15 -95 -17 -17 -21 -126 -5 -126 6 0 10 -45 10 -114
l0 -114 34 -32 c24 -23 35 -44 39 -72 3 -22 13 -48 22 -58 11 -13 15 -26 10
-37 -9 -21 -9 -47 1 -133 16 -128 20 -10 16 414 -3 373 -2 418 12 407 9 -7 24
-10 36 -6 19 6 20 8 5 19 -9 6 -21 23 -28 36 -14 28 -51 36 -82 18z"/>
<path d="M4202 5993 c-21 -22 -23 -33 -21 -114 1 -49 6 -92 10 -95 12 -7 11
-74 -1 -74 -5 0 -10 -13 -10 -30 0 -16 5 -30 11 -30 7 0 10 -50 8 -163 -2 -89
-1 -167 3 -172 3 -6 3 -44 0 -85 -3 -51 -8 -68 -13 -55 -5 14 -8 4 -8 -32 -1
-32 4 -53 12 -56 10 -4 10 -6 0 -6 -7 -1 -13 -6 -13 -12 0 -5 5 -7 10 -4 6 4
10 -8 10 -29 0 -19 -5 -36 -11 -38 -19 -6 -17 -147 1 -158 17 -11 220 -7 238
4 14 9 16 46 2 46 -5 0 -7 7 -4 15 3 8 -1 21 -9 30 -14 13 -16 13 -22 -4 -3
-10 -4 -25 -3 -32 2 -11 -17 -15 -84 -17 l-88 -2 0 545 0 545 90 0 90 0 1 -37
1 -38 8 40 c6 30 4 45 -9 62 -14 20 -24 22 -96 22 -72 -1 -82 -4 -103 -26z"/>
<path d="M5025 6013 c-85 -15 -132 -39 -204 -103 -42 -37 -82 -74 -90 -83 -7
-9 -17 -15 -21 -12 -4 3 -10 -5 -13 -16 -4 -13 -10 -18 -18 -13 -7 4 -10 3 -6
-3 3 -5 -32 -47 -79 -94 -47 -46 -95 -97 -107 -114 -22 -31 89 69 308 280
l130 124 123 1 c67 0 122 -4 122 -8 0 -4 -16 -23 -35 -42 -20 -19 -35 -41 -34
-50 3 -39 -2 -60 -16 -60 -8 0 -15 -7 -15 -15 0 -11 -11 -15 -42 -15 -41 0
-49 -6 -173 -125 -121 -116 -128 -124 -95 -118 48 9 97 37 148 84 29 27 51 30
72 9 19 -19 33 -20 198 -19 97 0 214 4 260 7 46 4 87 5 92 2 5 -3 10 -70 11
-148 0 -78 4 -140 9 -137 10 6 32 -20 23 -28 -3 -4 3 -7 15 -7 12 0 22 -6 23
-12 0 -7 1 -111 1 -231 1 -199 2 -219 19 -227 19 -11 188 -14 213 -4 20 8 21
50 2 57 -8 3 -16 16 -19 29 -3 17 -5 15 -6 -10 l-1 -33 -85 3 -84 3 -6 410
c-3 225 -8 412 -11 414 -3 3 -9 -1 -14 -9 -7 -11 -10 -6 -10 18 l0 33 -250 -3
c-138 -2 -249 -1 -248 3 2 3 56 53 120 113 l117 107 453 -1 c488 -1 1015 10
958 20 -19 4 -76 4 -125 2 -63 -3 -111 0 -155 11 -44 11 -88 14 -135 10 -111
-9 -394 -8 -722 1 -228 7 -303 6 -303 -2 0 -7 -9 -12 -20 -12 -11 0 -20 5 -20
10 0 10 -204 12 -255 3z"/>
<path d="M8138 5990 c-58 -48 -68 -78 -68 -202 0 -60 4 -118 10 -128 5 -10 11
-32 12 -48 2 -22 8 -32 24 -36 29 -8 73 -94 76 -148 2 -24 5 90 8 252 l5 295
33 3 c22 2 41 -3 55 -15 21 -18 21 -18 7 1 -16 20 -85 55 -110 56 -9 0 -32
-14 -52 -30z"/>
<path d="M3463 5989 c4 -15 0 -23 -14 -26 -10 -3 -19 -11 -19 -19 0 -7 -7 -17
-16 -22 -9 -5 -18 -20 -20 -33 -2 -13 -5 -33 -8 -44 -2 -11 -5 -23 -5 -26 -1
-4 -11 -9 -22 -12 -15 -4 -20 -11 -16 -21 8 -19 -2 -48 -13 -41 -4 3 -7 -1 -7
-8 2 -21 -36 -87 -50 -87 -7 0 -12 -10 -11 -23 2 -25 -88 -187 -104 -187 -5 0
-7 -4 -4 -9 3 -5 -1 -22 -9 -37 -8 -16 -15 -35 -15 -42 0 -7 -7 -15 -16 -19
-8 -3 -13 -11 -10 -19 3 -7 -2 -18 -10 -24 -8 -7 -14 -20 -14 -28 0 -23 12 -7
55 73 51 95 234 425 250 450 7 11 34 60 60 109 l48 89 17 -23 17 -23 -1 31 c0
16 -4 28 -8 25 -5 -2 -8 1 -8 6 0 6 -12 11 -26 11 -22 0 -25 -4 -21 -21z"/>
<path d="M1928 5987 c-24 -4 -52 -5 -64 -2 -15 3 -33 -8 -64 -40 -28 -28 -50
-43 -60 -40 -12 4 -17 -2 -18 -22 -1 -16 -3 -40 -5 -55 -1 -18 -21 -48 -55
-83 -54 -55 -54 -56 -9 -69 6 -2 28 3 47 10 l35 12 -50 1 -49 1 139 138 139
137 121 5 120 5 -92 5 c-51 3 -112 2 -135 -3z"/>
<path d="M5362 5888 c-31 -31 1 -78 39 -57 17 9 24 9 27 0 3 -8 234 -11 891
-11 677 0 890 -3 899 -12 7 -7 12 -9 12 -6 0 4 -7 14 -16 22 -14 14 -109 16
-900 16 l-884 0 -9 24 c-5 13 -17 26 -26 30 -21 8 -19 8 -33 -6z"/>
<path d="M5820 5739 c0 -6 9 -13 20 -16 12 -3 20 -14 20 -27 0 -20 5 -21 82
-21 56 0 83 -4 86 -12 2 -7 17 -13 33 -13 16 0 29 -4 29 -10 0 -6 47 -10 120
-10 l120 0 0 -107 c0 -60 3 -125 6 -145 6 -34 10 -38 36 -38 18 0 27 -4 23
-11 -4 -6 1 -16 11 -23 16 -12 17 -31 11 -240 -6 -208 -5 -226 11 -227 74 -6
909 5 916 12 5 5 6 12 2 16 -4 5 -210 9 -457 11 l-450 3 1 222 c1 122 1 318 1
435 l-1 212 -310 0 c-218 0 -310 -3 -310 -11z"/>
<path d="M6620 5735 c0 -9 6 -12 15 -9 10 4 15 0 15 -15 0 -18 6 -21 45 -21
25 0 45 4 45 9 0 5 46 11 103 14 56 3 111 7 122 10 11 3 36 6 55 7 29 1 32 3
15 10 -11 5 -109 9 -217 9 -168 1 -198 -1 -198 -14z"/>
<path d="M8377 5415 c-4 -137 -7 -335 -7 -440 l0 -189 -132 139 c-212 222
-264 275 -273 275 -4 0 11 -21 35 -46 23 -25 39 -51 36 -59 -3 -8 3 -17 15
-20 10 -4 19 -13 19 -21 0 -8 20 -36 45 -61 25 -25 49 -51 53 -58 9 -17 108
-131 152 -175 19 -20 42 -46 50 -58 8 -12 23 -22 33 -22 17 0 18 16 15 305 -3
259 -5 307 -18 315 -12 8 -11 10 6 10 21 0 21 3 18 146 -1 80 -5 149 -8 152
-3 3 -6 -3 -7 -14 -1 -10 -6 1 -13 26 -11 40 -13 17 -19 -205z"/>
<path d="M2980 5390 c0 -6 -45 -10 -116 -10 l-117 0 35 -32 34 -33 97 3 c53 2
97 8 97 13 0 5 12 9 26 9 16 0 24 5 21 13 -2 6 -9 11 -15 10 -5 -1 -18 7 -27
17 -20 22 -35 26 -35 10z"/>
<path d="M1831 5288 c-8 -16 -18 -28 -23 -28 -4 0 -8 -77 -8 -172 0 -148 2
-174 17 -190 14 -16 15 -21 4 -27 -8 -5 -10 -14 -7 -20 10 -15 660 -15 721 0
25 6 42 15 39 20 -3 5 3 9 13 9 10 0 25 5 33 11 12 9 11 9 -5 3 -11 -4 -189
-8 -395 -10 l-375 -3 3 157 c2 86 2 184 0 217 -3 59 -3 59 -17 33z"/>
<path d="M3183 5067 c-4 -7 -16 -28 -26 -47 l-18 -35 21 24 21 25 273 -2 c285
-1 332 3 317 27 -12 18 -575 26 -588 8z"/>
<path d="M5787 4286 c-33 -18 -57 -36 -55 -39 1 -3 -19 -18 -47 -32 -27 -15
-55 -33 -62 -42 -6 -8 -16 -12 -21 -9 -6 3 -12 3 -14 -1 -4 -11 -86 -63 -98
-63 -5 0 -10 -4 -10 -8 0 -5 -12 -15 -27 -23 -15 -8 -59 -35 -97 -61 -38 -27
-76 -48 -83 -48 -7 0 -13 -4 -13 -10 0 -5 -7 -10 -15 -10 -9 0 -18 -7 -21 -15
-4 -8 -12 -15 -20 -15 -8 0 -14 -3 -14 -7 0 -5 -11 -13 -25 -20 l-25 -11 0
174 c0 165 -1 174 -19 174 -11 0 -21 6 -24 13 -10 28 -18 -87 -15 -216 2 -75
1 -137 -1 -137 -16 0 -111 53 -107 59 3 4 -20 21 -52 37 -31 15 -62 36 -69 45
-7 9 -25 19 -40 22 -16 3 -40 16 -54 29 -24 21 -49 34 -49 24 0 -10 112 -76
121 -71 5 4 8 2 7 -4 -3 -8 243 -181 258 -181 2 0 4 9 4 19 0 11 5 23 10 26 6
4 10 -5 10 -19 0 -14 2 -26 4 -26 2 0 82 50 178 111 95 62 227 147 293 189
160 103 248 161 260 171 20 19 -13 7 -68 -25z"/>
<path d="M4986 3882 c-3 -5 7 -15 23 -22 16 -6 38 -21 49 -33 20 -21 21 -36
23 -279 1 -196 -2 -262 -11 -273 -11 -13 -11 -21 0 -43 7 -15 15 -22 17 -15 2
7 -1 21 -7 33 -9 16 -8 21 5 26 12 5 15 27 17 118 l1 111 7 -107 c6 -103 17
-139 44 -137 7 0 6 2 -2 6 -6 2 -10 9 -6 14 3 5 2 9 -3 9 -4 0 -7 116 -5 257
3 207 6 261 18 274 24 27 16 32 -16 9 l-30 -21 -32 24 c-60 44 -86 58 -92 49z"/>
</g>
</svg>
